{
	"asset":{
		"generator":"Khronos glTF Blender I/O v4.5.47",
		"version":"2.0"
	},
	"scene":0,
	"scenes":[
		{
			"name":"Scene",
			"nodes":[
				0,
				1,
				2
			]
		}
	],
	"nodes":[
		{
			"mesh":0,
			"name":"Circle"
		},
		{
			"mesh":1,
			"name":"Cube",
			"rotation":[
				0,
				-0.5,
				0,
				0.8660253882408142
			],
			"scale":[
				0.49210312962532043,
				0.49210309982299805,
				0.49210312962532043
			]
		},
		{
			"name":"Empty",
			"rotation":[
				0,
				-0.2588333785533905,
				0,
				0.9659219980239868
			],
			"scale":[
				0.49210312962532043,
				0.49210309982299805,
				0.49210312962532043
			]
		}
	],
	"materials":[
		{
			"doubleSided":true,
			"name":"Material.001",
			"pbrMetallicRoughness":{
				"baseColorFactor":[
					0.8003387451171875,
					0,
					0,
					1
				],
				"metallicFactor":0,
				"roughnessFactor":0.5
			}
		}
	],
	"meshes":[
		{
			"name":"Circle",
			"primitives":[
				{
					"attributes":{
						"POSITION":0,
						"NORMAL":1,
						"TEXCOORD_0":2
					},
					"indices":3
				}
			]
		},
		{
			"name":"Cube.001",
			"primitives":[
				{
					"attributes":{
						"POSITION":4,
						"NORMAL":5,
						"TEXCOORD_0":6
					},
					"indices":7,
					"material":0
				}
			]
		}
	],
	"accessors":[
		{
			"bufferView":0,
			"componentType":5126,
			"count":1024,
			"max":[
				0.5218095183372498,
				1.0091005364643024e-08,
				0.5218095183372498
			],
			"min":[
				-0.5218095183372498,
				-0.5536897778511047,
				-0.5218095183372498
			],
			"type":"VEC3"
		},
		{
			"bufferView":1,
			"componentType":5126,
			"count":1024,
			"type":"VEC3"
		},
		{
			"bufferView":2,
			"componentType":5126,
			"count":1024,
			"type":"VEC2"
		},
		{
			"bufferView":3,
			"componentType":5123,
			"count":1536,
			"type":"SCALAR"
		},
		{
			"bufferView":4,
			"componentType":5126,
			"count":288,
			"max":[
				0.993993878364563,
				0.13857117295265198,
				0.9939812421798706
			],
			"min":[
				-0.9940191507339478,
				-0.152200847864151,
				-0.9940065741539001
			],
			"type":"VEC3"
		},
		{
			"bufferView":5,
			"componentType":5126,
			"count":288,
			"type":"VEC3"
		},
		{
			"bufferView":6,
			"componentType":5126,
			"count":288,
			"type":"VEC2"
		},
		{
			"bufferView":7,
			"componentType":5123,
			"count":432,
			"type":"SCALAR"
		}
	],
	"bufferViews":[
		{
			"buffer":0,
			"byteLength":12288,
			"byteOffset":0,
			"target":34962
		},
		{
			"buffer":0,
			"byteLength":12288,
			"byteOffset":12288,
			"target":34962
		},
		{
			"buffer":0,
			"byteLength":8192,
			"byteOffset":24576,
			"target":34962
		},
		{
			"buffer":0,
			"byteLength":3072,
			"byteOffset":32768,
			"target":34963
		},
		{
			"buffer":0,
			"byteLength":3456,
			"byteOffset":35840,
			"target":34962
		},
		{
			"buffer":0,
			"byteLength":3456,
			"byteOffset":39296,
			"target":34962
		},
		{
			"buffer":0,
			"byteLength":2304,
			"byteOffset":42752,
			"target":34962
		},
		{
			"buffer":0,
			"byteLength":864,
			"byteOffset":45056,
			"target":34963
		}
	],
	"buffers":[
		{
			"byteLength":45920,
			"uri":"charybdis.bin"
		}
	]
}
