{
	"asset":{
		"generator":"Khronos glTF Blender I/O v5.0.21",
		"version":"2.0"
	},
	"scene":0,
	"scenes":[
		{
			"name":"Scene",
			"nodes":[
				0,
				1,
				2,
				3
			]
		}
	],
	"nodes":[
		{
			"mesh":0,
			"name":"Mask",
			"rotation":[
				0,
				-0.7071067094802856,
				0,
				0.7071068286895752
			],
			"scale":[
				0.26817846298217773,
				0.26817846298217773,
				0.26817846298217773
			],
			"translation":[
				0,
				0.6474829316139221,
				0
			]
		},
		{
			"mesh":1,
			"name":"Body",
			"rotation":[
				0,
				-0.7071067094802856,
				0,
				0.7071068286895752
			],
			"scale":[
				0.14221978187561035,
				0.26208823919296265,
				0.26208823919296265
			],
			"translation":[
				0,
				0.1434766799211502,
				0
			]
		},
		{
			"mesh":2,
			"name":"Hat",
			"rotation":[
				0,
				-1,
				0,
				7.549790126404332e-08
			],
			"scale":[
				0.33100825548171997,
				0.018928401172161102,
				0.33100825548171997
			],
			"translation":[
				0,
				0.7659903764724731,
				0
			]
		},
		{
			"mesh":3,
			"name":"Eyes",
			"rotation":[
				-0.09608478099107742,
				0.7005481719970703,
				0.7005481719970703,
				0.09608479589223862
			],
			"scale":[
				0.050523776561021805,
				0.02242228016257286,
				0.050523776561021805
			],
			"translation":[
				-0.0920526459813118,
				0.6504737734794617,
				0.24635693430900574
			]
		}
	],
	"meshes":[
		{
			"name":"Sphere",
			"primitives":[
				{
					"attributes":{
						"POSITION":0,
						"NORMAL":1,
						"TEXCOORD_0":2
					},
					"indices":3
				}
			]
		},
		{
			"name":"Cube.001",
			"primitives":[
				{
					"attributes":{
						"POSITION":4,
						"NORMAL":5,
						"TEXCOORD_0":6
					},
					"indices":7
				}
			]
		},
		{
			"name":"Cylinder",
			"primitives":[
				{
					"attributes":{
						"POSITION":8,
						"NORMAL":9,
						"TEXCOORD_0":10
					},
					"indices":11
				}
			]
		},
		{
			"name":"Cylinder.001",
			"primitives":[
				{
					"attributes":{
						"POSITION":12,
						"NORMAL":13,
						"TEXCOORD_0":14
					},
					"indices":15
				}
			]
		}
	],
	"accessors":[
		{
			"bufferView":0,
			"componentType":5126,
			"count":1060,
			"max":[
				1.2132896184921265,
				0.3826834559440613,
				0.784981369972229
			],
			"min":[
				-0.9999990463256836,
				-0.9238795042037964,
				-0.784981369972229
			],
			"type":"VEC3"
		},
		{
			"bufferView":1,
			"componentType":5126,
			"count":1060,
			"type":"VEC3"
		},
		{
			"bufferView":2,
			"componentType":5126,
			"count":1060,
			"type":"VEC2"
		},
		{
			"bufferView":3,
			"componentType":5123,
			"count":1584,
			"type":"SCALAR"
		},
		{
			"bufferView":4,
			"componentType":5126,
			"count":24,
			"max":[
				1,
				1,
				1
			],
			"min":[
				-1,
				-0.5495887994766235,
				-1
			],
			"type":"VEC3"
		},
		{
			"bufferView":5,
			"componentType":5126,
			"count":24,
			"type":"VEC3"
		},
		{
			"bufferView":6,
			"componentType":5126,
			"count":24,
			"type":"VEC2"
		},
		{
			"bufferView":7,
			"componentType":5123,
			"count":36,
			"type":"SCALAR"
		},
		{
			"bufferView":8,
			"componentType":5126,
			"count":452,
			"max":[
				1,
				5.844634532928467,
				1
			],
			"min":[
				-1,
				-1,
				-1
			],
			"type":"VEC3"
		},
		{
			"bufferView":9,
			"componentType":5126,
			"count":452,
			"type":"VEC3"
		},
		{
			"bufferView":10,
			"componentType":5126,
			"count":452,
			"type":"VEC2"
		},
		{
			"bufferView":11,
			"componentType":5123,
			"count":768,
			"type":"SCALAR"
		},
		{
			"bufferView":12,
			"componentType":5126,
			"count":384,
			"max":[
				1.0000001192092896,
				0.9999971389770508,
				1
			],
			"min":[
				-4.594534397125244,
				-4.23433780670166,
				-1.0000003576278687
			],
			"type":"VEC3"
		},
		{
			"bufferView":13,
			"componentType":5126,
			"count":384,
			"type":"VEC3"
		},
		{
			"bufferView":14,
			"componentType":5126,
			"count":384,
			"type":"VEC2"
		},
		{
			"bufferView":15,
			"componentType":5123,
			"count":744,
			"type":"SCALAR"
		}
	],
	"bufferViews":[
		{
			"buffer":0,
			"byteLength":12720,
			"byteOffset":0,
			"target":34962
		},
		{
			"buffer":0,
			"byteLength":12720,
			"byteOffset":12720,
			"target":34962
		},
		{
			"buffer":0,
			"byteLength":8480,
			"byteOffset":25440,
			"target":34962
		},
		{
			"buffer":0,
			"byteLength":3168,
			"byteOffset":33920,
			"target":34963
		},
		{
			"buffer":0,
			"byteLength":288,
			"byteOffset":37088,
			"target":34962
		},
		{
			"buffer":0,
			"byteLength":288,
			"byteOffset":37376,
			"target":34962
		},
		{
			"buffer":0,
			"byteLength":192,
			"byteOffset":37664,
			"target":34962
		},
		{
			"buffer":0,
			"byteLength":72,
			"byteOffset":37856,
			"target":34963
		},
		{
			"buffer":0,
			"byteLength":5424,
			"byteOffset":37928,
			"target":34962
		},
		{
			"buffer":0,
			"byteLength":5424,
			"byteOffset":43352,
			"target":34962
		},
		{
			"buffer":0,
			"byteLength":3616,
			"byteOffset":48776,
			"target":34962
		},
		{
			"buffer":0,
			"byteLength":1536,
			"byteOffset":52392,
			"target":34963
		},
		{
			"buffer":0,
			"byteLength":4608,
			"byteOffset":53928,
			"target":34962
		},
		{
			"buffer":0,
			"byteLength":4608,
			"byteOffset":58536,
			"target":34962
		},
		{
			"buffer":0,
			"byteLength":3072,
			"byteOffset":63144,
			"target":34962
		},
		{
			"buffer":0,
			"byteLength":1488,
			"byteOffset":66216,
			"target":34963
		}
	],
	"buffers":[
		{
			"byteLength":67704,
			"uri":"the-doctor.bin"
		}
	]
}
