{
	"asset":{
		"generator":"Khronos glTF Blender I/O v4.4.56",
		"version":"2.0"
	},
	"scene":0,
	"scenes":[
		{
			"name":"Scene",
			"nodes":[
				3,
				4,
				5
			]
		}
	],
	"nodes":[
		{
			"mesh":0,
			"name":"Cube.001",
			"translation":[
				1.0972567796707153,
				0.5765897631645203,
				-2.9529404640197754
			]
		},
		{
			"mesh":1,
			"name":"Cone.001",
			"translation":[
				4.511350631713867,
				0,
				0
			]
		},
		{
			"children":[
				1
			],
			"mesh":2,
			"name":"Icosphere",
			"translation":[
				4.806814193725586,
				0,
				0
			]
		},
		{
			"children":[
				0,
				2
			],
			"mesh":3,
			"name":"Cube"
		},
		{
			"mesh":4,
			"name":"Torus",
			"translation":[
				0,
				0,
				3.654744863510132
			]
		},
		{
			"mesh":5,
			"name":"Cylinder",
			"translation":[
				-5.031339168548584,
				0,
				0
			]
		}
	],
	"materials":[
		{
			"doubleSided":true,
			"name":"Material",
			"pbrMetallicRoughness":{
				"baseColorFactor":[
					0.800000011920929,
					0.800000011920929,
					0.800000011920929,
					1
				],
				"metallicFactor":0,
				"roughnessFactor":0.5
			}
		}
	],
	"meshes":[
		{
			"name":"Cube.001",
			"primitives":[
				{
					"attributes":{
						"POSITION":0,
						"NORMAL":1,
						"TEXCOORD_0":2
					},
					"indices":3
				}
			]
		},
		{
			"name":"Cone",
			"primitives":[
				{
					"attributes":{
						"POSITION":4,
						"NORMAL":5,
						"TEXCOORD_0":6
					},
					"indices":7
				}
			]
		},
		{
			"name":"Icosphere",
			"primitives":[
				{
					"attributes":{
						"POSITION":8,
						"NORMAL":9,
						"TEXCOORD_0":10
					},
					"indices":11
				}
			]
		},
		{
			"name":"Cube",
			"primitives":[
				{
					"attributes":{
						"POSITION":12,
						"NORMAL":13,
						"TEXCOORD_0":14
					},
					"indices":15,
					"material":0
				}
			]
		},
		{
			"name":"Torus",
			"primitives":[
				{
					"attributes":{
						"POSITION":16,
						"NORMAL":17,
						"TEXCOORD_0":18
					},
					"indices":19
				}
			]
		},
		{
			"name":"Cylinder",
			"primitives":[
				{
					"attributes":{
						"POSITION":20,
						"NORMAL":21,
						"TEXCOORD_0":22
					},
					"indices":23
				}
			]
		}
	],
	"accessors":[
		{
			"bufferView":0,
			"componentType":5126,
			"count":24,
			"max":[
				1,
				1,
				1
			],
			"min":[
				-1,
				-1,
				-1
			],
			"type":"VEC3"
		},
		{
			"bufferView":1,
			"componentType":5126,
			"count":24,
			"type":"VEC3"
		},
		{
			"bufferView":2,
			"componentType":5126,
			"count":24,
			"type":"VEC2"
		},
		{
			"bufferView":3,
			"componentType":5123,
			"count":36,
			"type":"SCALAR"
		},
		{
			"bufferView":4,
			"componentType":5126,
			"count":128,
			"max":[
				1,
				1,
				1
			],
			"min":[
				-1,
				-1,
				-1
			],
			"type":"VEC3"
		},
		{
			"bufferView":5,
			"componentType":5126,
			"count":128,
			"type":"VEC3"
		},
		{
			"bufferView":6,
			"componentType":5126,
			"count":128,
			"type":"VEC2"
		},
		{
			"bufferView":7,
			"componentType":5123,
			"count":186,
			"type":"SCALAR"
		},
		{
			"bufferView":8,
			"componentType":5126,
			"count":240,
			"max":[
				0.9510578513145447,
				1,
				0.9999999403953552
			],
			"min":[
				-0.9510578513145447,
				-1,
				-0.9999999403953552
			],
			"type":"VEC3"
		},
		{
			"bufferView":9,
			"componentType":5126,
			"count":240,
			"type":"VEC3"
		},
		{
			"bufferView":10,
			"componentType":5126,
			"count":240,
			"type":"VEC2"
		},
		{
			"bufferView":11,
			"componentType":5123,
			"count":240,
			"type":"SCALAR"
		},
		{
			"bufferView":12,
			"componentType":5126,
			"count":24,
			"max":[
				1,
				1,
				1
			],
			"min":[
				-1,
				-1,
				-1
			],
			"type":"VEC3"
		},
		{
			"bufferView":13,
			"componentType":5126,
			"count":24,
			"type":"VEC3"
		},
		{
			"bufferView":14,
			"componentType":5126,
			"count":24,
			"type":"VEC2"
		},
		{
			"bufferView":15,
			"componentType":5123,
			"count":36,
			"type":"SCALAR"
		},
		{
			"bufferView":16,
			"componentType":5126,
			"count":2304,
			"max":[
				1.25,
				0.25,
				1.25
			],
			"min":[
				-1.25,
				-0.25,
				-1.25
			],
			"type":"VEC3"
		},
		{
			"bufferView":17,
			"componentType":5126,
			"count":2304,
			"type":"VEC3"
		},
		{
			"bufferView":18,
			"componentType":5126,
			"count":2304,
			"type":"VEC2"
		},
		{
			"bufferView":19,
			"componentType":5123,
			"count":3456,
			"type":"SCALAR"
		},
		{
			"bufferView":20,
			"componentType":5126,
			"count":192,
			"max":[
				1,
				1,
				1
			],
			"min":[
				-1,
				-1,
				-1
			],
			"type":"VEC3"
		},
		{
			"bufferView":21,
			"componentType":5126,
			"count":192,
			"type":"VEC3"
		},
		{
			"bufferView":22,
			"componentType":5126,
			"count":192,
			"type":"VEC2"
		},
		{
			"bufferView":23,
			"componentType":5123,
			"count":372,
			"type":"SCALAR"
		}
	],
	"bufferViews":[
		{
			"buffer":0,
			"byteLength":288,
			"byteOffset":0,
			"target":34962
		},
		{
			"buffer":0,
			"byteLength":288,
			"byteOffset":288,
			"target":34962
		},
		{
			"buffer":0,
			"byteLength":192,
			"byteOffset":576,
			"target":34962
		},
		{
			"buffer":0,
			"byteLength":72,
			"byteOffset":768,
			"target":34963
		},
		{
			"buffer":0,
			"byteLength":1536,
			"byteOffset":840,
			"target":34962
		},
		{
			"buffer":0,
			"byteLength":1536,
			"byteOffset":2376,
			"target":34962
		},
		{
			"buffer":0,
			"byteLength":1024,
			"byteOffset":3912,
			"target":34962
		},
		{
			"buffer":0,
			"byteLength":372,
			"byteOffset":4936,
			"target":34963
		},
		{
			"buffer":0,
			"byteLength":2880,
			"byteOffset":5308,
			"target":34962
		},
		{
			"buffer":0,
			"byteLength":2880,
			"byteOffset":8188,
			"target":34962
		},
		{
			"buffer":0,
			"byteLength":1920,
			"byteOffset":11068,
			"target":34962
		},
		{
			"buffer":0,
			"byteLength":480,
			"byteOffset":12988,
			"target":34963
		},
		{
			"buffer":0,
			"byteLength":288,
			"byteOffset":13468,
			"target":34962
		},
		{
			"buffer":0,
			"byteLength":288,
			"byteOffset":13756,
			"target":34962
		},
		{
			"buffer":0,
			"byteLength":192,
			"byteOffset":14044,
			"target":34962
		},
		{
			"buffer":0,
			"byteLength":72,
			"byteOffset":14236,
			"target":34963
		},
		{
			"buffer":0,
			"byteLength":27648,
			"byteOffset":14308,
			"target":34962
		},
		{
			"buffer":0,
			"byteLength":27648,
			"byteOffset":41956,
			"target":34962
		},
		{
			"buffer":0,
			"byteLength":18432,
			"byteOffset":69604,
			"target":34962
		},
		{
			"buffer":0,
			"byteLength":6912,
			"byteOffset":88036,
			"target":34963
		},
		{
			"buffer":0,
			"byteLength":2304,
			"byteOffset":94948,
			"target":34962
		},
		{
			"buffer":0,
			"byteLength":2304,
			"byteOffset":97252,
			"target":34962
		},
		{
			"buffer":0,
			"byteLength":1536,
			"byteOffset":99556,
			"target":34962
		},
		{
			"buffer":0,
			"byteLength":744,
			"byteOffset":101092,
			"target":34963
		}
	],
	"buffers":[
		{
			"byteLength":101836,
			"uri":"Untitled.bin"
		}
	]
}
